<svg width="40" height="40" viewBox="0 0 40 40" fill="none" xmlns="http://www.w3.org/2000/svg">
<path fill-rule="evenodd" clip-rule="evenodd" d="M12.475 0H27.445C34.3337 0 39.92 5.5863 39.92 12.475V27.445C39.92 34.3337 34.3337 39.92 27.445 39.92H12.475C5.5863 39.92 0 34.3337 0 27.445V12.475C0 5.5863 5.5863 0 12.475 0ZM27.445 36.1775C32.2603 36.1775 36.1775 32.2603 36.1775 27.445V12.475C36.1775 7.65965 32.2603 3.7425 27.445 3.7425H12.475C7.65965 3.7425 3.7425 7.65965 3.7425 12.475V27.445C3.7425 32.2603 7.65965 36.1775 12.475 36.1775H27.445ZM9.98 19.96C9.98 14.4485 14.4485 9.98 19.96 9.98C25.4715 9.98 29.94 14.4485 29.94 19.96C29.94 25.4715 25.4715 29.94 19.96 29.94C14.4485 29.94 9.98 25.4715 9.98 19.96ZM13.7225 19.96C13.7225 23.3981 16.5219 26.1975 19.96 26.1975C23.3981 26.1975 26.1975 23.3981 26.1975 19.96C26.1975 16.5194 23.3981 13.7225 19.96 13.7225C16.5219 13.7225 13.7225 16.5194 13.7225 19.96ZM32.0184 9.23151C32.0184 9.96596 31.423 10.5613 30.6886 10.5613C29.9541 10.5613 29.3588 9.96596 29.3588 9.23151C29.3588 8.49706 29.9541 7.90168 30.6886 7.90168C31.423 7.90168 32.0184 8.49706 32.0184 9.23151Z" fill="black"/>
</svg>
