<svg width="42" height="42" viewBox="0 0 42 42" fill="none" xmlns="http://www.w3.org/2000/svg">
<path d="M13.5974 18.6135L16.9906 15.1988L16.1035 12.0945H12.0894C12.0894 12.0945 11.1801 17.7266 17.6782 24.2012C24.1762 30.6759 29.8316 29.8333 29.8316 29.8333V25.8199L26.7267 24.9329L23.3113 28.3255M40.6543 24.2012C40.1432 27.3056 38.9052 30.2451 37.0414 32.78C35.1776 35.3148 32.7407 37.3732 29.9296 38.7871C27.1186 40.201 24.013 40.9304 20.8663 40.9157C17.7196 40.901 14.621 40.1427 11.8232 38.7027L1.00047 40.92L3.21824 30.0994C1.77083 27.2919 1.01062 24.181 1.00011 21.0225C0.989606 17.864 1.72911 14.7481 3.15782 11.931C4.58653 9.11397 6.66363 6.6762 9.21833 4.81817C11.773 2.96014 14.7324 1.73492 17.853 1.24326C20.9736 0.751599 24.1664 1.00754 27.1688 1.99003C30.1712 2.97253 32.8975 4.65351 35.1234 6.89477C37.3494 9.13603 39.0115 11.8735 39.973 14.8822C40.9345 17.8909 41.168 21.0847 40.6543 24.2012Z" stroke="black" stroke-width="2" stroke-linecap="round" stroke-linejoin="round"/>
</svg>
