<svg id="visual" viewBox="0 0 900 600" width="900" height="600" xmlns="http://www.w3.org/2000/svg" xmlns:xlink="http://www.w3.org/1999/xlink" version="1.1"><path d="M0 438L21.5 444.3C43 450.7 86 463.3 128.8 473C171.7 482.7 214.3 489.3 257.2 487.7C300 486 343 476 385.8 464.8C428.7 453.7 471.3 441.3 514.2 438.7C557 436 600 443 642.8 449.7C685.7 456.3 728.3 462.7 771.2 471.8C814 481 857 493 878.5 499L900 505L900 601L878.5 601C857 601 814 601 771.2 601C728.3 601 685.7 601 642.8 601C600 601 557 601 514.2 601C471.3 601 428.7 601 385.8 601C343 601 300 601 257.2 601C214.3 601 171.7 601 128.8 601C86 601 43 601 21.5 601L0 601Z" fill="#EBE2CD" stroke-linecap="round" stroke-linejoin="miter"></path></svg>